{
	"asset":{
		"generator":"Khronos glTF Blender I/O v4.1.63",
		"version":"2.0"
	},
	"scene":0,
	"scenes":[
		{
			"name":"Scene",
			"nodes":[
				0,
				1,
				2,
				3
			]
		}
	],
	"nodes":[
		{
			"mesh":0,
			"name":"Cube",
			"scale":[
				0.1340855360031128,
				0.1340855360031128,
				0.1340855360031128
			]
		},
		{
			"mesh":1,
			"name":"z",
			"scale":[
				0.09455583989620209,
				0.09455583989620209,
				0.09455583989620209
			]
		},
		{
			"mesh":2,
			"name":"x",
			"rotation":[
				0,
				0.7071068286895752,
				0,
				0.7071068286895752
			],
			"scale":[
				0.09455583989620209,
				0.09455583989620209,
				0.09455583989620209
			]
		},
		{
			"mesh":3,
			"name":"y",
			"rotation":[
				0.5,
				0.5,
				-0.5,
				0.5000000596046448
			],
			"scale":[
				0.09455583989620209,
				0.09455583989620209,
				0.09455583989620209
			]
		}
	],
	"materials":[
		{
			"doubleSided":true,
			"name":"Material",
			"pbrMetallicRoughness":{
				"baseColorFactor":[
					0.800000011920929,
					0.800000011920929,
					0.800000011920929,
					1
				],
				"metallicFactor":0,
				"roughnessFactor":0.5
			}
		},
		{
			"doubleSided":true,
			"name":"Material.001",
			"pbrMetallicRoughness":{
				"baseColorFactor":[
					0.007351360283792019,
					0,
					0.8001416921615601,
					1
				],
				"metallicFactor":0,
				"roughnessFactor":0.5
			}
		},
		{
			"doubleSided":true,
			"name":"Material.002",
			"pbrMetallicRoughness":{
				"baseColorFactor":[
					0.8002588152885437,
					0,
					0.0019409223459661007,
					1
				],
				"metallicFactor":0,
				"roughnessFactor":0.5
			}
		},
		{
			"doubleSided":true,
			"name":"Material.003",
			"pbrMetallicRoughness":{
				"baseColorFactor":[
					0.000750791048631072,
					0.8002511262893677,
					0,
					1
				],
				"metallicFactor":0,
				"roughnessFactor":0.5
			}
		}
	],
	"meshes":[
		{
			"name":"Cube",
			"primitives":[
				{
					"attributes":{
						"POSITION":0,
						"NORMAL":1,
						"TEXCOORD_0":2
					},
					"indices":3,
					"material":0
				}
			]
		},
		{
			"name":"Circle",
			"primitives":[
				{
					"attributes":{
						"POSITION":4,
						"NORMAL":5,
						"TEXCOORD_0":6
					},
					"indices":7,
					"material":1
				}
			]
		},
		{
			"name":"Circle.001",
			"primitives":[
				{
					"attributes":{
						"POSITION":8,
						"NORMAL":9,
						"TEXCOORD_0":10
					},
					"indices":7,
					"material":2
				}
			]
		},
		{
			"name":"Circle.002",
			"primitives":[
				{
					"attributes":{
						"POSITION":11,
						"NORMAL":12,
						"TEXCOORD_0":13
					},
					"indices":7,
					"material":3
				}
			]
		}
	],
	"accessors":[
		{
			"bufferView":0,
			"componentType":5126,
			"count":24,
			"max":[
				1,
				1,
				1
			],
			"min":[
				-1,
				-1,
				-1
			],
			"type":"VEC3"
		},
		{
			"bufferView":1,
			"componentType":5126,
			"count":24,
			"type":"VEC3"
		},
		{
			"bufferView":2,
			"componentType":5126,
			"count":24,
			"type":"VEC2"
		},
		{
			"bufferView":3,
			"componentType":5123,
			"count":36,
			"type":"SCALAR"
		},
		{
			"bufferView":4,
			"componentType":5126,
			"count":320,
			"max":[
				1.9945878982543945,
				1.9945878982543945,
				16.52385711669922
			],
			"min":[
				-1.9945878982543945,
				-1.9945878982543945,
				0
			],
			"type":"VEC3"
		},
		{
			"bufferView":5,
			"componentType":5126,
			"count":320,
			"type":"VEC3"
		},
		{
			"bufferView":6,
			"componentType":5126,
			"count":320,
			"type":"VEC2"
		},
		{
			"bufferView":7,
			"componentType":5123,
			"count":558,
			"type":"SCALAR"
		},
		{
			"bufferView":8,
			"componentType":5126,
			"count":320,
			"max":[
				1.9945878982543945,
				1.9945878982543945,
				16.52385711669922
			],
			"min":[
				-1.9945878982543945,
				-1.9945878982543945,
				0
			],
			"type":"VEC3"
		},
		{
			"bufferView":9,
			"componentType":5126,
			"count":320,
			"type":"VEC3"
		},
		{
			"bufferView":10,
			"componentType":5126,
			"count":320,
			"type":"VEC2"
		},
		{
			"bufferView":11,
			"componentType":5126,
			"count":320,
			"max":[
				1.9945878982543945,
				1.9945878982543945,
				16.52385711669922
			],
			"min":[
				-1.9945878982543945,
				-1.9945878982543945,
				0
			],
			"type":"VEC3"
		},
		{
			"bufferView":12,
			"componentType":5126,
			"count":320,
			"type":"VEC3"
		},
		{
			"bufferView":13,
			"componentType":5126,
			"count":320,
			"type":"VEC2"
		}
	],
	"bufferViews":[
		{
			"buffer":0,
			"byteLength":288,
			"byteOffset":0,
			"target":34962
		},
		{
			"buffer":0,
			"byteLength":288,
			"byteOffset":288,
			"target":34962
		},
		{
			"buffer":0,
			"byteLength":192,
			"byteOffset":576,
			"target":34962
		},
		{
			"buffer":0,
			"byteLength":72,
			"byteOffset":768,
			"target":34963
		},
		{
			"buffer":0,
			"byteLength":3840,
			"byteOffset":840,
			"target":34962
		},
		{
			"buffer":0,
			"byteLength":3840,
			"byteOffset":4680,
			"target":34962
		},
		{
			"buffer":0,
			"byteLength":2560,
			"byteOffset":8520,
			"target":34962
		},
		{
			"buffer":0,
			"byteLength":1116,
			"byteOffset":11080,
			"target":34963
		},
		{
			"buffer":0,
			"byteLength":3840,
			"byteOffset":12196,
			"target":34962
		},
		{
			"buffer":0,
			"byteLength":3840,
			"byteOffset":16036,
			"target":34962
		},
		{
			"buffer":0,
			"byteLength":2560,
			"byteOffset":19876,
			"target":34962
		},
		{
			"buffer":0,
			"byteLength":3840,
			"byteOffset":22436,
			"target":34962
		},
		{
			"buffer":0,
			"byteLength":3840,
			"byteOffset":26276,
			"target":34962
		},
		{
			"buffer":0,
			"byteLength":2560,
			"byteOffset":30116,
			"target":34962
		}
	],
	"buffers":[
		{
			"byteLength":32676,
			"uri":"gizmo.bin"
		}
	]
}
